<svg version="1.1" xmlns="http://www.w3.org/2000/svg" width="200" height="113" viewBox="0 0 200 113" class="css-1j8o68f">
  <defs id="SvgjsDefs1406"></defs>
  <g id="SvgjsG1407" featurekey="nameContainer" transform="matrix(1,0,0,1,0,0)" fill="#8c82fc">
    <rect y="0" height="1" width="1" opacity="0"></rect>
    <rect y="108" width="200" height="5"></rect>
  </g>
  <g id="SvgjsG1408" featurekey="nameFeature-0" transform="matrix(2.7817027997421016,0,0,2.7817027997421016,-2.5287070619516316,-16.172923262507496)" fill="#8c82fc">
    <path d="M1.5775 12.780999999999999 l-0.66845 -0.82888 l10.508 0 l0 4.2246 l-7.246 0 l1.0963 0.82888 l0 6.8449 l4.3048 0 l0 4.2246 l-5.4011 0 l1.0963 0.82888 l0 11.043 l-3.6898 0 l0 -27.166 z M16.390349197860964 39.946524 l-3.6898 0 l0 -27.166 l-0.66845 -0.82888 l4.3583 0 l0 27.995 z M17.56684604278075 12.032 l4.2781 0 l2.4866 20.107 l2.4599 -20.107 l3.6898 0 l-3.4225 27.995 l-5.4813 0 l-3.3155 -27.166 l-0.026738 0 z M32.299421390374334 12.861 l-0.66845 -0.82888 l10.508 0 l0 4.2246 l-7.246 0 l1.0963 0.82888 l0 6.8182 l4.3316 0 l0 4.2513 l-5.4278 0 l1.0963 0.80214 l0 6.8449 l6.1497 0 l0 4.2246 l-9.8396 0 l0 -4.2246 l0 -7.6471 l0 -4.2513 l0 -11.043 z M47.352929946524064 23.824 l4.3048 0 l0 -7.6738 l-5.4011 0 l1.0963 0.82888 l0 6.8449 z M55.32122994652406 14.599 l0 10.802 c0 1.4973 -1.1497 2.6471 -2.6471 2.6471 l-0.50802 0 l3.1551 11.898 l-3.7968 0 l-3.1551 -11.898 l-2.1123 0 l1.0963 0.82888 l0 11.07 l-3.6898 0 l0 -23.797 l0 -3.3957 l-0.66845 -0.82888 l9.6791 0.026738 c1.4973 0 2.6471 1.1497 2.6471 2.6471 z M56.12295828877005 12.032 l6.1765 0 l2.4866 9.4385 l2.5134 -9.4385 l5.508 0 l-0.026738 27.995 l-3.6631 0 l0 -20.535 l-4.3316 16.257 l0 0.026738 l0 -0.026738 l0 0.026738 l0 -0.026738 l-4.3048 -16.257 l0 20.535 l-3.6898 0 l0 -27.193 z"></path>
  </g>
</svg>